<?xml version="1.0" encoding="UTF-8" standalone="no"?>
<svg width="176px" height="27px" viewBox="0 0 176 27" version="1.1" xmlns="http://www.w3.org/2000/svg" xmlns:xlink="http://www.w3.org/1999/xlink" xmlns:sketch="http://www.bohemiancoding.com/sketch/ns">
    <!-- Generator: Sketch 3.1.1 (8761) - http://www.bohemiancoding.com/sketch -->
    <title>logo_bar_noderover</title>
    <desc>Created with Sketch.</desc>
    <defs></defs>
    <g id="Welcome" stroke="none" stroke-width="1" fill="none" fill-rule="evenodd" sketch:type="MSPage">
        <g id="Mobile-Portrait" sketch:type="MSArtboardGroup" transform="translate(-233.000000, -7.000000)">
            <g id="logo_bar_noderover" sketch:type="MSLayerGroup" transform="translate(233.000000, 7.000000)">
                <g id="Logo_1_" sketch:type="MSShapeGroup">
                    <g id="Group">
                        <path d="M15.2,13.9 C15.2,13.6 15,13.3 14.8,13.2 L8.2,9.4 C8.1,9.3 8,9.3 7.8,9.3 L7.7,9.3 C7.6,9.3 7.4,9.3 7.3,9.4 L0.7,13.2 C0.5,13.3 0.3,13.6 0.3,13.9 L0.3,24.2 C0.3,24.3 0.4,24.5 0.5,24.5 C0.6,24.6 0.8,24.6 0.9,24.5 L4.8,22.2 C5,22.1 5.2,21.8 5.2,21.5 L5.2,16.7 C5.2,16.4 5.4,16.1 5.6,16 L7.3,15 C7.4,14.9 7.6,14.9 7.7,14.9 C7.8,14.9 8,14.9 8.1,15 L9.8,16 C10,16.1 10.2,16.4 10.2,16.7 L10.2,21.5 C10.2,21.8 10.4,22 10.6,22.2 L14.5,24.5 C14.6,24.6 14.8,24.6 14.9,24.5 C15,24.4 15.1,24.3 15.1,24.2 L15.2,13.9 L15.2,13.9 Z" id="Shape" fill="#FFFFFF"></path>
                        <path d="M128.3,22.6 C128.3,22.9 128.5,23.2 128.7,23.3 L132.7,27.1 C132.8,27.2 132.9,27.2 133.1,27.2 L133.2,27.2 C133.3,27.2 133.5,27.2 133.6,27.1 L137.6,23.3 C137.8,23.2 138,22.9 138,22.6 L140.6,12.3 C140.6,12.2 140.5,12 140.4,12 C140.3,11.9 140.1,11.9 140,12 L136.1,14.3 C135.9,14.4 135.7,14.7 135.7,15 L133.6,21.4 C133.5,21.5 133.3,21.5 133.2,21.5 C133.1,21.5 132.9,21.5 132.8,21.4 L130.7,15 C130.7,14.7 130.5,14.5 130.3,14.3 L126.4,12 C126.3,11.9 126.1,11.9 126,12 C125.9,12.1 125.8,12.2 125.8,12.3 L128.3,22.6 L128.3,22.6 Z" id="Shape" fill="#FFFFFF"></path>
                        <path d="M50.5,-0.2 C50.4,-0.3 50.2,-0.3 50.1,-0.2 C50,-0.1 49.9,-9.32587341e-15 49.9,0.1 L49.9,10.3 C49.9,10.4 49.8,10.5 49.8,10.5 C49.7,10.6 49.6,10.6 49.5,10.5 L47.8,9.5 C47.6,9.4 47.2,9.4 47,9.5 L40.4,13.3 C40.2,13.4 40,13.7 40,14 L40,21.6 C40,21.9 40.2,22.1 40.4,22.3 L47,26.1 C47.2,26.2 47.6,26.2 47.8,26.1 L54.4,22.3 C54.6,22.2 54.8,21.9 54.8,21.6 L54.8,2.7 C54.8,2.4 54.6,2.1 54.4,2 L50.5,-0.2 L50.5,-0.2 Z M49.9,19.3 C49.9,19.4 49.9,19.4 49.8,19.5 L47.5,20.8 L47.3,20.8 L45,19.5 C44.9,19.5 44.9,19.4 44.9,19.3 L44.9,16.7 C44.9,16.6 44.9,16.6 45,16.5 L47.3,15.2 L47.5,15.2 L49.8,16.5 C49.9,16.5 49.9,16.6 49.9,16.7 L49.9,19.3 L49.9,19.3 Z" id="Shape" fill="#FFFFFF"></path>
                        <path d="M74.2,16.6 C74.4,16.5 74.6,16.2 74.6,15.9 L74.6,14 C74.6,13.7 74.4,13.5 74.2,13.3 L67.6,9.5 C67.4,9.4 67,9.4 66.8,9.5 L60.2,13.3 C60,13.4 59.8,13.7 59.8,14 L59.8,21.6 C59.8,21.9 60,22.2 60.2,22.3 L66.8,26 C67,26.1 67.3,26.1 67.6,26 L71.6,23.8 C71.7,23.7 71.8,23.6 71.8,23.5 C71.8,23.4 71.7,23.2 71.6,23.2 L64.9,19.4 C64.8,19.3 64.7,19.2 64.7,19.1 L64.7,16.7 C64.7,16.6 64.8,16.4 64.9,16.4 L67,15.2 C67.1,15.1 67.3,15.1 67.4,15.2 L69.5,16.4 C69.6,16.5 69.7,16.6 69.7,16.7 L69.7,18.6 C69.7,18.7 69.8,18.9 69.9,18.9 C70,19 70.2,19 70.3,18.9 L74.2,16.6 L74.2,16.6 Z" id="Shape" fill="#FFFFFF"></path>
                        <path d="M27.2,9.5 C27.4,9.4 27.8,9.4 28,9.5 L34.6,13.3 C34.8,13.4 35,13.7 35,14 L35,21.6 C35,21.9 34.8,22.1 34.6,22.3 L28,26.1 C27.8,26.2 27.4,26.2 27.2,26.1 L20.6,22.3 C20.4,22.2 20.2,21.9 20.2,21.6 L20.2,14 C20.2,13.7 20.4,13.5 20.6,13.3 L27.2,9.5 L27.2,9.5 Z" id="Shape" fill="#80BD01"></path>
                        <path d="M114.8,9.5 C115,9.4 115.4,9.4 115.6,9.5 L122.2,13.3 C122.4,13.4 122.6,13.7 122.6,14 L122.6,21.6 C122.6,21.9 122.4,22.1 122.2,22.3 L115.6,26.1 C115.4,26.2 115,26.2 114.8,26.1 L108.2,22.3 C108,22.2 107.8,21.9 107.8,21.6 L107.8,14 C107.8,13.7 108,13.5 108.2,13.3 L114.8,9.5 L114.8,9.5 Z" id="Shape" fill="#80BD01"></path>
                        <path d="M67.2,16.2 L67.4,16.2 L68.7,16.9 L68.8,17 L68.8,18.5 C68.8,18.6 68.8,18.6 68.7,18.6 L67.4,19.3 L67.2,19.3 L65.9,18.6 L65.8,18.5 L65.8,17 C65.8,16.9 65.8,16.9 65.9,16.9 L67.2,16.2 L67.2,16.2 Z" id="Shape" fill="#80BD01"></path>
                        <path d="M157.8,16.6 C158,16.5 158.2,16.2 158.2,15.9 L158.2,14 C158.2,13.7 158,13.5 157.8,13.3 L151.2,9.5 C151,9.4 150.6,9.4 150.4,9.5 L143.8,13.3 C143.6,13.4 143.4,13.7 143.4,14 L143.4,21.6 C143.4,21.9 143.6,22.2 143.8,22.3 L150.4,26 C150.6,26.1 150.9,26.1 151.2,26 L155.2,23.8 C155.3,23.7 155.4,23.6 155.4,23.5 C155.4,23.4 155.3,23.2 155.2,23.2 L148.5,19.4 C148.4,19.3 148.3,19.2 148.3,19.1 L148.3,16.7 C148.3,16.6 148.4,16.4 148.5,16.4 L150.6,15.2 C150.7,15.1 150.9,15.1 151,15.2 L153.1,16.4 C153.2,16.5 153.3,16.6 153.3,16.7 L153.3,18.6 C153.3,18.7 153.4,18.9 153.5,18.9 C153.6,19 153.8,19 153.9,18.9 L157.8,16.6 L157.8,16.6 Z" id="Shape" fill="#FFFFFF"></path>
                        <path d="M150.7,16.2 L150.9,16.2 L152.2,16.9 L152.3,17 L152.3,18.5 C152.3,18.6 152.3,18.6 152.2,18.6 L150.9,19.3 L150.7,19.3 L149.4,18.6 L149.3,18.5 L149.3,17 C149.3,16.9 149.3,16.9 149.4,16.9 L150.7,16.2 L150.7,16.2 Z" id="Shape" fill="#80BD01"></path>
                        <path d="M103.6,13.3 L96.5,9.5 C96.3,9.4 95.7,9.4 95.5,9.5 L89,13.3 C88.8,13.4 89,13.7 89,14 L89,26.2 C89,26.3 88.7,26.5 88.8,26.5 C88.9,26.6 88.9,26.6 89,26.5 L92.8,24.2 C93,24.1 93,23.7 93,23.4 L93,18.2 L93.1,16.4 C93.1,16.3 93.2,16.1 93.3,16.1 L95.4,14.9 C95.5,14.8 95.7,14.8 95.8,14.9 L98.3,16.1 C98.4,16.2 99,16.3 99,16.4 L99,18.3 C99,18.4 98.6,18.6 98.7,18.6 C98.8,18.7 98.7,18.7 98.9,18.6 L103.7,16.3 C103.9,16.2 105,15.9 105,15.6 L105,14 C105,13.7 103.9,13.5 103.6,13.3 L103.6,13.3 Z" id="Shape" fill="#FFFFFF"></path>
                        <path d="M175.5,13.3 L168.9,9.5 C168.7,9.4 168.3,9.4 168.1,9.5 L161.4,13.3 C161.2,13.4 161.1,13.7 161.1,14 L161.1,26.2 C161.1,26.3 161.1,26.5 161.3,26.5 C161.4,26.6 161.6,26.6 161.7,26.5 L165.7,24.2 C165.9,24.1 166.1,23.7 166.1,23.4 L166.1,18.2 L166.1,16.4 C166.1,16.3 166.1,16.1 166.3,16.1 L168.4,14.9 C168.5,14.8 168.7,14.8 168.8,14.9 L170.4,16.1 C170.5,16.2 170.2,16.3 170.2,16.4 L170.2,18.3 C170.2,18.4 170.7,18.6 170.8,18.6 C170.9,18.7 171.3,18.7 171.4,18.6 L175.6,16.3 C175.8,16.2 176.2,15.9 176.2,15.6 L176.2,14 C176,13.7 175.8,13.5 175.5,13.3 L175.5,13.3 Z" id="Shape" fill="#FFFFFF"></path>
                    </g>
                </g>
            </g>
        </g>
    </g>
</svg>
